<svg xmlns="http://www.w3.org/2000/svg" xmlns:xlink="http://www.w3.org/1999/xlink"  viewBox="0 0 2850 2005.2"><defs><clipPath id="clip-path"><rect width="2850" height="2005.16" style="fill:none"/></clipPath><linearGradient id="linear-gradient" x1="844.9" y1="936.76" x2="772.41" y2="1529.51" gradientUnits="userSpaceOnUse"><stop offset="0.04" stop-color="#b3d3f8"/><stop offset="0.19" stop-color="#9ec9f0"/><stop offset="0.49" stop-color="#67afda"/><stop offset="0.92" stop-color="#1087b8"/><stop offset="0.92" stop-color="#0f86b8"/></linearGradient><linearGradient id="linear-gradient-2" x1="1387.1" y1="1158.09" x2="1450.98" y2="1970.03" gradientUnits="userSpaceOnUse"><stop offset="0.23" stop-color="#b3d2fa"/><stop offset="0.4" stop-color="#82b7e4"/><stop offset="0.58" stop-color="#519ccd"/><stop offset="0.74" stop-color="#2e88bd"/><stop offset="0.87" stop-color="#187cb4"/><stop offset="0.95" stop-color="#1078b0"/></linearGradient><linearGradient id="linear-gradient-3" x1="1129.08" y1="1392.83" x2="1900.48" y2="1988.91" gradientUnits="userSpaceOnUse"><stop offset="0" stop-color="#5c77a2"/><stop offset="1" stop-color="#173e7d"/></linearGradient></defs><g style="isolation:isolate"><g id="Layer_1" data-name="Layer 1"><g style="clip-path:url(#clip-path)"><path d="M1589.3,1302.3s-911.4-244-1589.3,0v359.2l1576.3-162" style="fill:url(#linear-gradient)"/><path d="M382.3,1213.8c-130.6,16.5-260.2,44.6-382.3,88.5v295.4C77.7,1416.1,218.5,1299.8,382.3,1213.8Z" style="fill:#36649f;opacity:0.1"/><path d="M1191,1227.4c-103.6,5.1-208.8,5.1-310.6,24.2-267.7,66.5-514.9,182.5-708.2,386.2-2.4,2.4-4.7,4.6-7.2,6.7l1411.3-145,13-197.2S1428.1,1259.2,1191,1227.4Z" style="fill:#36649f;opacity:0.1"/><g id="middleground"><path d="M2850,1274.5s-669.3-188.5-1425,79.6C828.6,1565.7,0,1571.9,0,1571.9v433.3H2850" style="fill:url(#linear-gradient-2)"/><g style="opacity:0.4"><path d="M1561.5,1904.5l-315.8-220.1c-1.3-.9-1.1-1.9.4-2.2l206.5-41.5c1.6-.3,1.6-1,.2-1.6l-445.4-171.2c-1.4-.6-1.4-1.3.1-1.6l98.5-21.2a12.8,12.8,0,0,1,5.5.3L1703,1635c1.4.5,1.5,1.4.1,2.1l-160.3,74.3c-1.4.7-1.4,1.8,0,2.4l425.7,196.5" style="fill:url(#linear-gradient-3)"/></g></g><g style="opacity:0.13;mix-blend-mode:overlay"><polyline points="1670.1 1264.5 1674 1251.2 1650.4 1256.4 1630.8 1323.1" style="fill:#fff"/><line x1="1664.5" y1="1283.4" x2="1668.9" y2="1268.4" style="fill:#fff"/></g><g style="opacity:0.13;mix-blend-mode:overlay"><path d="M286.8,1187.4l4-13.4c2.7-9.2,7.1-9.2,9.8,0l13.4,45.7-7.7.5,8.4,1.7,2.4,8.3-11.8,1L294,1192.9C292.1,1186.4,289.3,1184.5,286.8,1187.4Z" style="fill:#fff"/><polygon points="305.3 1231.2 305.3 1231.3 304.9 1231.2 305.3 1231.2" style="fill:#fff"/></g><g style="opacity:0.13;mix-blend-mode:overlay"><polyline points="609.5 1180.8 607.8 1175.2 617.7 1177.4 625.9 1205.3 616.7 1205.3 612.7 1191.8" style="fill:#fff"/><line x1="611.8" y1="1188.7" x2="610" y2="1182.4" style="fill:#fff"/></g><g style="opacity:0.13;mix-blend-mode:overlay"><line x1="2017" y1="1256.2" x2="2023" y2="1235.7" style="fill:#fff"/><polygon points="2030 1211.8 2029.9 1212.1 2031 1211.9 2030 1211.8" style="fill:#fff"/></g><g id="foreground"><path d="M0,2005.2V1813s826.3-122.2,1425,23.2c573.6,139.3,1425,63.4,1425,63.4v105.6Z" style="fill:#264f8c"/><polygon points="777.8 1610.3 725.6 1780.8 774 1781.8 822.5 1782.9 777.8 1610.3" style="fill:#264f8c"/><polygon points="947.8 1612.3 895.6 1782.7 944.1 1783.8 992.5 1784.9 947.8 1612.3" style="fill:#264f8c"/><polygon points="1236.4 1689.3 1196 1821 1233.5 1821.9 1270.9 1822.7 1236.4 1689.3" style="fill:#264f8c"/><polygon points="705.4 1590.6 642.2 1797.1 700.9 1798.4 759.5 1799.7 705.4 1590.6" style="fill:#264f8c"/><polygon points="2364.2 1739.4 2301 1945.9 2359.7 1947.2 2418.4 1948.5 2364.2 1739.4" style="fill:#264f8c"/><polygon points="292 1580.4 228.7 1786.9 287.4 1788.2 346.1 1789.5 292 1580.4" style="fill:#264f8c"/><polygon points="348.9 1660.6 309 1791 346.1 1791.8 383.1 1792.6 348.9 1660.6" style="fill:#264f8c"/><polygon points="176.4 1684.1 136.5 1814.5 173.6 1815.4 210.6 1816.2 176.4 1684.1" style="fill:#264f8c"/><polygon points="1564.1 1750.3 1523.8 1882 1561.3 1882.9 1598.7 1883.7 1564.1 1750.3" style="fill:#264f8c"/><polygon points="1968.1 1797.5 1927.8 1929.2 1965.3 1930.1 2002.7 1930.9 1968.1 1797.5" style="fill:#264f8c"/><polygon points="2727.8 1777.3 2687.5 1909 2725 1909.8 2762.4 1910.7 2727.8 1777.3" style="fill:#264f8c"/><polygon points="2431.3 1792.8 2391 1924.5 2428.4 1925.4 2465.9 1926.2 2431.3 1792.8" style="fill:#264f8c"/><polygon points="2513.4 1750.9 2460.2 1924.5 2509.6 1925.6 2558.9 1926.7 2513.4 1750.9" style="fill:#264f8c"/><polygon points="1623.6 1731.3 1572.5 1898.2 1620 1899.3 1667.4 1900.3 1623.6 1731.3" style="fill:#264f8c"/></g></g></g></g></svg>