<svg id="Layer_1" data-name="Layer 1" xmlns="http://www.w3.org/2000/svg" viewBox="0 0 2850 1800"><polygon points="1713.7 1142.4 1769.6 1273.6 1769.6 1373.3 1844.9 1434.5 1869.3 1579.7 1923.6 1626.9 1932.3 1681.1 2041.2 1800 2850 1800 2850 1127.4 2240.2 974.3 1678.3 974.3 1725.9 1112.6 1713.7 1142.4" style="fill:#632a0a"/><polygon points="1678.3 974.3 1725.9 1112.6 1713.7 1142.4 1769.6 1273.6 1769.6 1373.3 1844.9 1434.5 1869.3 1579.7 1923.6 1626.9 1977.8 1574.6 1968.2 1436.9 1920.6 1371.5 1908.8 1267.5 1865.6 1185.7 1849.3 1230.3 1865.6 1309.1 1824 1245.2 1788 1010.1 1678.3 974.3" style="fill:#702f0c"/><polygon points="1788 1010.1 1824 1245.2 1865.6 1309.1 1849.3 1230.3 1865.6 1185.7 1908.8 1267.5 1920.6 1371.5 1968.2 1436.9 1945.4 1042 1936.2 1010.1 1788 1010.1" style="fill:#632a0a"/><polygon points="1932.3 1681.1 2041.2 1800 2255 1800 2142.8 1465 2073 1400.8 2046 1087.7 1945.4 1042 1977.8 1574.6 1923.6 1626.9 1932.3 1681.1" style="fill:#8f3b15"/><polygon points="2255 1800 2142.8 1465 1977.8 1574.6 2047.8 1800 2255 1800" style="fill:#6f2f0c"/><path d="M1997.6,1658.6c14.5-4.6,29-9.3,44.1-11.2q-20.7,13.6-39.9,29.2a97.1,97.1,0,0,0,23.5,1.3,107.3,107.3,0,0,0-18.9,10.8" style="fill:#8f3b15"/><path d="M2024.4,1748.1a320,320,0,0,1,32.4-4.7c-9.6,5.7-19.5,10.9-29.6,15.7" style="fill:#8f3b15"/><polygon points="2117.4 1098.7 2139.5 1304.5 2174.9 1325.5 2193 1613.9 2270.1 1715.2 2260.1 1261.3 2315.5 1192.7 2329.6 1096.9 2234.5 1124.3 2117.4 1098.7" style="fill:#8f3b15"/><polygon points="2234.5 1124.3 2260.1 1261.3 2315.5 1192.7 2329.6 1096.9 2234.5 1124.3" style="fill:#702f0c"/><polygon points="2157.6 1069.5 2046 1087.7 2073 1400.8 2142.8 1465 2193 1613.9 2174.9 1325.5 2139.5 1304.5 2117.4 1098.7 2157.6 1069.5" style="fill:#632a0a"/><polygon points="2588.2 1800 2492.6 1382 2512.1 1135.8 2391.7 1119.4 2380.8 1305.6 2322.1 1370.9 2390 1800 2588.2 1800" style="fill:#8f3b15"/><polygon points="2592.1 1800 2655.6 1294.1 2590.7 1133.8 2512.1 1135.8 2492.6 1382 2588.2 1800 2592.1 1800" style="fill:#702f0c"/><path d="M2536.1,1506.1l-34,12c-5.2,1.8-10.8,3.7-16.1,2.5l15.1,8.2a15.3,15.3,0,0,0,2.7,1.1,11.5,11.5,0,0,0,3.2.2l29.2-1.6c-18.2,14.7-43.7,14.9-65.7,22.5,22.6-2.2,45.3-3.6,68-4" style="fill:#702f0c"/><path d="M2563.3,1641.6c-11.4,4.7-22.8,9.4-34.2,14.3a330.3,330.3,0,0,0,34.4,3" style="fill:#702f0c"/><polygon points="2850 855.5 2146.7 904.8 1938.1 943.2 1678.3 956 1678.3 974.3 1788 1010.1 1936.2 1010.1 1945.4 1042 2046 1087.7 2157.6 1069.5 2117.4 1098.7 2234.5 1124.3 2329.6 1096.9 2391.7 1119.4 2512.1 1135.8 2850 1127.4 2850 855.5" style="fill:#c75124"/><polygon points="2073 1400.8 1972 1477.9 1977.8 1574.6 2142.8 1465 2073 1400.8" style="fill:#b54a20"/><polygon points="2292 1800 2390 1800 2322.1 1370.9 2380.8 1305.6 2391.7 1119.4 2329.6 1096.9 2315.5 1192.7 2260.1 1261.3 2270.1 1715.2 2292 1800" style="fill:#632a0a"/><polygon points="2322.1 1370.9 2492.6 1382 2497.1 1324.8 2380.8 1305.6 2322.1 1370.9" style="fill:#b54a20"/><polygon points="1725.9 1112.6 1775.4 1133.8 1748.6 1146.4 1713.7 1142.4 1725.9 1112.6" style="fill:#b54a20"/><polygon points="1844.9 1434.5 1878.1 1458.7 1869.3 1579.7 1844.9 1434.5" style="fill:#8f3b15"/><polygon points="1769.6 1273.6 1796.6 1324.8 1769.6 1373.3 1769.6 1273.6" style="fill:#8f3b15"/><polygon points="1678.3 974.3 1713.7 985.9 1725.9 1112.6 1678.3 974.3" style="fill:#8f3b15"/><path d="M2617,1477.9c17.5,1,35,1.9,52.4,2.5-18.7,6.5-37.8,12.2-57.1,17" style="fill:#702f0c"/><path d="M2602,1627.6c-.4-.3-1,.5-.7.9a1.9,1.9,0,0,0,1.4.7q32.3,5.1,64.6,8.8a261.8,261.8,0,0,0-63.1,13.3,191.8,191.8,0,0,1,44.1,11.9c-14.7.7-29.6,2.7-43.4,8.2a50.3,50.3,0,0,1,27.1,11.5l-17.3,2.2c-6.4.8-13.3,1.9-17.8,6.5" style="fill:#702f0c"/><polygon points="2740.5 1130.1 2655.6 1294.1 2590.7 1133.8 2740.5 1130.1" style="fill:#8f3b15"/><path d="M2253.7,1255a155.3,155.3,0,0,0,58.5,13.1c-19.6,7.3-39,15-58.3,22.9,8.2,5.2,17.9,7,27.5,8.7l-32.8,9.7" style="fill:#8f3b15"/><path d="M2261.1,1540.5a370.1,370.1,0,0,1,36,10.3,236.1,236.1,0,0,0-39.2,13.6" style="fill:#8f3b15"/><path d="M2049.3,1168c8.8,2.9,17.9,5.9,27.1,4.8,6.7-.8,13.2-3.7,19.9-2.7a407.1,407.1,0,0,1-40.8,17.5c6.3,4.1,15.2.8,21.8,4.4a87.2,87.2,0,0,0-23.2,10.7" style="fill:#8f3b15"/><path d="M2059.3,1277.5c7.7.5,19.3.9,27.1,1.3l-25.8,14.8" style="fill:#8f3b15"/><path d="M587.3,1800c13.3-53.5,9.7-126.8,32.5-164.3,9.8-16.2,22.6-21.8,34.9-27l134.9-56.5c34.8-99.2,89.2-260.7,89.2-260.7l131.2-47.4,142.8-181.4-6.6-33.7S337.2,1122.3,0,1162.4V1800Z" style="fill:#632a0a"/><polygon points="340.2 1800 317 1558.2 194.7 1644.9 150.9 1800 340.2 1800" style="fill:#702f0c"/><polygon points="553.7 1393.3 566.4 1577.7 622.3 1388.4 626.3 1312.1 553.7 1393.3" style="fill:#8f3b15"/><polygon points="613.2 1800 600.9 1705.1 781.3 1581.6 813.3 1484 843 1462.2 856 1408 590 1510.8 530 1800 613.2 1800" style="fill:#632a0a"/><path d="M975.6,1114.3l1.2,114.2s-12.4,32.1-12.2,32l45.4-16.4,53.4-67.8,4.5-86.3Z" style="fill:#8f3b15"/><polygon points="1077.3 1057.1 1072.8 1143.4 1061.7 1166.9 1063.4 1176.3 1152.8 1062.7 1146.2 1029 1077.3 1057.1" style="fill:#8f3b15"/><polygon points="1156.3 1005.9 1159.2 1054.6 1152.8 1062.7 1146.2 1029 1156.3 1005.9" style="fill:#994019"/><polygon points="964.6 1159.7 964.6 1194.6 931.5 1232.3 925.9 1274.5 878.8 1291.5 849.4 1378.4 747.3 1393.3 763.7 1336.4 799.8 1297.4 809 1182.7 964.6 1159.7" style="fill:#8f3b15"/><polygon points="0 1019.2 756 984 821.6 1015.1 1081.3 995.6 1156.3 1005.9 1146.2 1029 1077.3 1057.1 1067.9 1090 975.6 1114.3 964.6 1159.7 809 1182.7 774.8 1234.1 659.1 1276.5 553.7 1393.3 0 1497.4 0 1019.2" style="fill:#c75124"/><polygon points="719.9 1348.8 767.8 1308.7 774.8 1234.1 505.3 1328.9 626.3 1312.1 622.3 1388.4 719.4 1360.2 719.9 1348.8" style="fill:#8f3b15"/><polygon points="640.1 1407.3 859.8 1379.7 856 1408 791.8 1450.4 626.3 1508.9 640.1 1407.3" style="fill:#c75124"/><polygon points="791.8 1450.4 728.2 1617.9 600.9 1705.1 626.3 1508.9 791.8 1450.4" style="fill:#8f3b15"/><polygon points="317 1558.2 458.9 1543.2 615.9 1589 619.8 1635.7 564.7 1688.8 285.9 1630.3 317 1558.2" style="fill:#c75124"/><polygon points="333.9 1800 584.4 1800 584.4 1740.2 619.8 1635.7 564.7 1688.8 285.9 1630.3 290.3 1740.2 333.9 1800" style="fill:#632a0a"/><polygon points="333.9 1800 502.5 1800 490.7 1751.2 564.7 1688.8 285.9 1630.3 290.3 1740.2 333.9 1800" style="fill:#8f3b15"/><path d="M1133.3,1020c-.8-13.7-1.3-27.4-1.2-41.2a22.6,22.6,0,0,0-9.3,1c2.1,13.4,6.7,28.2,8.8,41.6Z" style="fill:#75310e"/><path d="M1131.6,1021.4c-.8-13.7-1.3-27.4-1.2-41.1a22.6,22.6,0,0,0-9.3.9c2.1,13.4,4.2,26.8,6.4,40.2Z" style="fill:#8f3b15"/><path d="M1121.1,981.2l1.7-1.4a22.7,22.7,0,0,1,9.3-1l-1.7,1.5Z" style="fill:#a7451d"/><path d="M1145,1010.4c-.8-13.7-1.3-27.4-1.2-41.1a21,21,0,0,0-9.3.9c2.1,13.4,6.7,28.2,8.8,41.6Z" style="fill:#75310e"/><path d="M1143.3,1011.8c-.8-13.7-1.3-27.4-1.2-41.1a22.6,22.6,0,0,0-9.3.9c2.1,13.4,4.2,26.8,6.4,40.2Z" style="fill:#8f3b15"/><path d="M1132.8,971.6l1.7-1.4a21.9,21.9,0,0,1,9.3-.9l-1.7,1.4Z" style="fill:#a7451d"/><path d="M1707.5,973.3c.9-13.7,2.2-27.4,4-41a22.5,22.5,0,0,0-9.3-.2c.3,13.5,3,28.8,3.4,42.4Z" style="fill:#75310e"/><path d="M1705.6,974.5c.9-13.7,2.2-27.4,4-41a22.4,22.4,0,0,0-9.3-.2l1.2,40.7Z" style="fill:#8f3b15"/><path d="M1700.3,933.3l1.9-1.2a23.3,23.3,0,0,1,9.3.2l-1.9,1.2Z" style="fill:#a7451d"/><path d="M1695.6,961.7c.1-13.8.7-27.5,1.8-41.2a22.9,22.9,0,0,0-9.4.3c1.2,13.5,4.7,28.6,5.8,42.2Z" style="fill:#75310e"/><path d="M1693.8,963c.1-13.8.7-27.5,1.8-41.2a21.3,21.3,0,0,0-9.4.3c1.2,13.5,2.3,27,3.5,40.5Z" style="fill:#8f3b15"/><path d="M1686.2,922.1l1.8-1.3a22.5,22.5,0,0,1,9.4-.3l-1.8,1.3Z" style="fill:#a7451d"/><path d="M1706.7,968.3c-83,35.4-173.1,53.2-262.5,61.9-77.9,7.6-157.3,8.9-235.1.3-27.5-3-55.9-6.8-82.1-16.1-1.8-.6-2.6,2.3-.8,2.9,22.8,8.1,47.1,11.8,71,14.8a983.8,983.8,0,0,0,105.7,7c87.7,1.3,176-6.1,261.8-24.1,49.1-10.4,97.4-24.5,143.5-44.1,1.8-.8.3-3.4-1.5-2.6Z" style="fill:#6c2d0b"/><path d="M1694.8,955.9c-80.7,34.5-167.6,53.4-254.6,62.8-73.3,7.9-148.1,9.6-221.5,1.5-26.7-2.9-54-6.8-79.3-15.8-1.9-.6-2.6,2.3-.8,2.9,22,7.8,45.4,11.5,68.4,14.5,33.3,4.3,66.8,6.1,100.3,6.5,83,.8,166.5-7.3,247.5-25.2,48.4-10.7,95.9-25.1,141.5-44.6,1.8-.7.3-3.3-1.5-2.6Z" style="fill:#6c2d0b"/><path d="M1708.2,938.4c-83.8,35.7-175,53.3-265.4,61.9-78.8,7.5-159,8.6-237.7,0-27.8-3-56.4-6.8-82.9-16.1-1.8-.7-2.6,2.2-.8,2.9,22.9,8.1,47.4,11.7,71.4,14.8,35.6,4.5,71.6,6.5,107.5,7,88.7,1.4,178.2-5.8,265.1-23.9,49.3-10.3,98-24.3,144.4-44.1,1.7-.7.2-3.3-1.6-2.5Z" style="fill:#6c2d0b"/><path d="M1694.8,926.6c-81.4,34.7-169.3,53.4-257.1,62.6-74.2,7.8-150,9.4-224.3,1.1-26.7-3-54.2-6.9-79.7-15.8-1.8-.7-2.6,2.2-.8,2.8,22.2,7.8,45.8,11.6,69,14.6a882.4,882.4,0,0,0,101.5,6.6c84.2,1,168.9-6.9,251.1-24.9,48.5-10.6,96.2-24.9,141.8-44.4,1.8-.8.3-3.4-1.5-2.6Z" style="fill:#6c2d0b"/><path d="M1365.6,1025.6a69.5,69.5,0,0,1-.9,11.2,1.1,1.1,0,0,0,.1,1h.7l6.2-.7a6.1,6.1,0,0,1-.5-3,68.6,68.6,0,0,0-.9-9c-.1-.1-.1-.3-.2-.3h-.4l-3.4.3" style="fill:#702f0c"/><path d="M1365.6,1024.5a69.5,69.5,0,0,1-.9,11.2,1.1,1.1,0,0,0,.1,1h.7l6.2-.7a6.1,6.1,0,0,1-.5-3,68.6,68.6,0,0,0-.9-9l-.2-.3h-.4l-3.4.3" style="fill:#8f3b15"/><path d="M1365,1024.2a92.6,92.6,0,0,1-1.7,12.8l-5.2.2h-1.6a50.6,50.6,0,0,0,4.1-10.6,7.6,7.6,0,0,0,.3-2.1,28.8,28.8,0,0,0,4.1-.2" style="fill:#8f3b15"/><path d="M1359.6,1024.8c-.2,2-4.4,12.8-4.7,12.9a80.3,80.3,0,0,1-8.5,0c-.4-.2,7.1-12.1,7.2-12.3v-.2Z" style="fill:#8f3b15"/><polygon points="1351.4 1025.3 1344.4 1037.8 1334.7 1037.6 1344.4 1025.6 1351.4 1025.3" style="fill:#8f3b15"/><polygon points="1341.6 1025.7 1332.4 1037.7 1324.8 1037.7 1334.3 1025.7 1341.6 1025.7" style="fill:#8f3b15"/><polygon points="1331.1 1025.7 1321.3 1037.9 1310 1037.6 1323 1025.7 1331.1 1025.7" style="fill:#8f3b15"/><polygon points="1319.7 1025.7 1307.5 1037.8 1296.3 1037.2 1310 1025.7 1319.7 1025.7" style="fill:#8f3b15"/><polygon points="1305.6 1025.7 1293.9 1036.8 1284.7 1036.8 1295.2 1025.7 1305.6 1025.7" style="fill:#8f3b15"/><polygon points="1291.6 1025.7 1280.2 1036.8 1269.5 1035.9 1280.5 1025.3 1291.6 1025.7" style="fill:#8f3b15"/><polygon points="1276.8 1025.3 1267.2 1035.8 1253.9 1035.8 1268 1024.6 1276.8 1025.3" style="fill:#8f3b15"/><polygon points="1264.9 1024.6 1252.5 1035.1 1240.2 1034.2 1254.8 1024.1 1264.9 1024.6" style="fill:#8f3b15"/><polygon points="1251.8 1024.1 1236.4 1034.6 1224.3 1033.5 1243 1023.1 1251.8 1024.1" style="fill:#8f3b15"/><path d="M1238.1,1023.1c-.4-.2-14.8,9.5-14.8,9.5l-10.7-.2,13.7-11.2Z" style="fill:#8f3b15"/><polygon points="1223.1 1021.2 1209.8 1031.8 1198.8 1030.8 1215.5 1020.2 1223.1 1021.2" style="fill:#8f3b15"/><polygon points="1213 1020.2 1196.4 1030.5 1188.5 1028.8 1203.7 1019 1213 1020.2" style="fill:#8f3b15"/><polygon points="1199.8 1018.6 1185.5 1028.8 1177.7 1027.8 1193.9 1017.7 1199.8 1018.6" style="fill:#8f3b15"/><polygon points="1189.9 1017.7 1175.3 1027.8 1167.1 1026 1184.9 1016.4 1189.9 1017.7" style="fill:#8f3b15"/><polygon points="1182.2 1016 1163.8 1026 1155.9 1024.1 1174.8 1014.6 1182.2 1016" style="fill:#8f3b15"/><polygon points="1170.4 1014.3 1153.8 1024.1 1146.9 1021.8 1164.4 1012.5 1170.4 1014.3" style="fill:#8f3b15"/><polygon points="1160.7 1012.1 1144 1021.4 1137.7 1019.3 1153.9 1010.4 1160.7 1012.1" style="fill:#8f3b15"/><polygon points="1150.5 1009.5 1135.7 1019 1130.6 1015.9 1144.2 1006.8 1150.5 1009.5" style="fill:#8f3b15"/><path d="M1372,1024.2c.2,1.4,1.6,9.9,2.6,12.7l5.3-.3h1.5a48.3,48.3,0,0,1-4.8-10.3,5.4,5.4,0,0,1-.5-2.1,18.6,18.6,0,0,1-4.1.1" style="fill:#8f3b15"/><path d="M1377.4,1024.4c.3,2,5.4,12.5,5.7,12.5s8.2-.3,8.5-.6-8-11.5-8.2-11.7v-.2Z" style="fill:#8f3b15"/><polygon points="1385.6 1024.3 1393.6 1036.3 1403.2 1035.4 1392.7 1024.1 1385.6 1024.3" style="fill:#8f3b15"/><polygon points="1395.4 1024 1405.5 1035.2 1413.1 1034.6 1402.7 1023.5 1395.4 1024" style="fill:#8f3b15"/><polygon points="1405.9 1023.2 1416.6 1034.6 1427.9 1033.5 1414 1022.6 1405.9 1023.2" style="fill:#8f3b15"/><polygon points="1417.3 1022.4 1430.4 1033.5 1441.5 1032.1 1427 1021.6 1417.3 1022.4" style="fill:#8f3b15"/><polygon points="1431.3 1021.3 1443.9 1031.5 1453.1 1030.8 1441.8 1020.5 1431.3 1021.3" style="fill:#8f3b15"/><polygon points="1445.3 1020.3 1457.5 1030.4 1468.2 1028.8 1456.3 1019 1445.3 1020.3" style="fill:#8f3b15"/><polygon points="1460 1018.7 1470.4 1028.4 1483.7 1027.4 1468.8 1017.4 1460 1018.7" style="fill:#8f3b15"/><polygon points="1471.9 1017.2 1485 1026.7 1497.2 1024.8 1481.9 1015.9 1471.9 1017.2" style="fill:#8f3b15"/><polygon points="1484.9 1015.7 1501 1024.9 1513 1023 1493.6 1014 1484.9 1015.7" style="fill:#8f3b15"/><path d="M1498.5,1013.6c.3-.2,15.4,8.4,15.4,8.4l10.7-1-14.5-10.2Z" style="fill:#8f3b15"/><polygon points="1513.3 1010.6 1527.3 1020.2 1538.2 1018.3 1520.8 1009 1513.3 1010.6" style="fill:#8f3b15"/><polygon points="1523.3 1008.8 1541.3 1018.2 1549.2 1016.6 1532.5 1006.9 1523.3 1008.8" style="fill:#8f3b15"/><polygon points="1536.3 1006.3 1552 1016 1559.8 1014.4 1542.1 1004.9 1536.3 1006.3" style="fill:#8f3b15"/><polygon points="1545.4 1004.3 1562.8 1013.8 1570.4 1012.2 1551 1002.9 1545.4 1004.3" style="fill:#8f3b15"/><polygon points="1553.7 1002.4 1573.7 1011.5 1581.9 1009.1 1561 1000.4 1553.7 1002.4" style="fill:#8f3b15"/><polygon points="1564.9 999.5 1584.2 1009.1 1591.4 1006.9 1571.2 997.5 1564.9 999.5" style="fill:#8f3b15"/><polygon points="1574.8 996.9 1594.9 1007 1602 1004.9 1581.5 994.6 1574.8 996.9" style="fill:#8f3b15"/><polygon points="1584.8 994.6 1604 1004.6 1610.8 1002.5 1593.7 992 1584.8 994.6" style="fill:#8f3b15"/><path d="M1596.6,991.3l16.8,10.5,8.2-2.3-18.4-10Z" style="fill:#8f3b15"/><path d="M1606.8,988.5c.3-.1,18.5,9.8,18.5,9.8l10.6-3.7-20.6-8.6Z" style="fill:#8f3b15"/><polygon points="1618.8 984.9 1641 993.8 1649.8 991 1625.3 983 1618.8 984.9" style="fill:#8f3b15"/><polygon points="1629.6 981.6 1653.3 989.9 1661.6 987.1 1636.8 979.3 1629.6 981.6" style="fill:#8f3b15"/><path d="M1640.1,978.2l24.8,7.8,9.6-3.4-25.5-7.4Z" style="fill:#8f3b15"/><polygon points="1652.8 973.9 1678.3 981.2 1686.2 978.2 1659.7 971.4 1652.8 973.9" style="fill:#8f3b15"/><polygon points="1663.2 970.1 1688 976.6 1696.6 974.1 1671.2 967.1 1663.2 970.1" style="fill:#8f3b15"/><polygon points="1675.8 965.3 1698.6 973.3 1705.9 970.2 1681.8 963 1675.8 965.3" style="fill:#8f3b15"/><path d="M1127.2,1015a47.1,47.1,0,0,1,4.3-13.3c1.7-3.8,3.5-8.9,6.6-11.6.1-.1.1-.3,0-.3l-1.2-.7-.3.2a131.6,131.6,0,0,0,1.6,16.5c.5,2.9,1.1,5.7,1.8,8.6s.7,2.8,1.1,4.2a9.6,9.6,0,0,0,.7,1.8c-.5.1-.5.1,0-.1s1.9-1.7,2.6-2.4l3-3c1.9-2,3.8-4.1,5.6-6.3a131.8,131.8,0,0,0,9.7-12.6.2.2,0,0,0-.1-.3l-.4-.2c-.1-.1-.3.1-.3.3a125.9,125.9,0,0,1,2.8,31.2c0,.2.2.3.3.2,5-2.7,8.5-8.5,12-12.8l5.4-7.1,3.3-4.4a9.3,9.3,0,0,0,2.1-3.2.2.2,0,0,0-.1-.3h-.2c-.1,0-.3,0-.3.1v.2c-.1.2.1.5.3.3s.9.4,1.1,1.5.8,2.9,1.1,4.3,1.5,5.8,2.2,8.8c1.4,5.8,2.7,11.7,4,17.6,0,.1.2.2.4.1,2-1.1,3.7-4.5,5.2-6.3l6.6-8.3c3.7-4.7,8.1-9.3,10.3-15,.1-.2-.2-.4-.4-.2l-.6.7c0,.1-.1.2,0,.3a100.3,100.3,0,0,1,9.2,30.9.3.3,0,0,0,.4.2c1.3-.9,2.1-2.7,3-4l6.2-8.1c3.6-4.7,7.5-9.2,11.5-13.5.4-.4,2.3-3,2.8-2.9s1.7,3.5,2,4.1c1.3,3,2.6,6,3.8,9,2.3,5.8,4.3,11.6,6.1,17.6.1.2.5.2.5,0s2.2-2.3,3.1-3.2,3.6-3.9,5.4-5.9q5.4-5.8,10.5-12c1.4-1.8,2.8-3.5,4.1-5.3s1.8-2.5,1.4-2.4,2.3,1.9,3,2.8a119.1,119.1,0,0,1,8,12c1.2,2.1,2.3,4.1,3.3,6.3s1.1,2.7,1.6,4.1.5,2.8,1.1,3.8,1.9.4,2.9-.6,1.5-1.8,2.3-2.6,2.8-3.4,4.2-5.2a111.4,111.4,0,0,0,8-12.2c1.1-2,2.2-4.1,3.2-6.3.3-.5,1.2-3.1,1.7-3.1s1.7,2.4,2,3c5,9.2,6.2,20,10.3,29.6.1.1.3.2.4,0,2.7-3.3,6.8-5.8,9.9-8.7a116.5,116.5,0,0,0,10.3-10.8,130.4,130.4,0,0,0,8.5-11.1c.4-.7,1.1-2.4,2-2.6s1.7.9,2.4,1.5,3.5,4.5,5.1,6.8c3.1,4.3,6.2,8.6,9,13.2a73.3,73.3,0,0,1,4.2,7.3c1.9,4.4.3,2.1.9,1.3s1.2-2.2,1.9-3.2c3.1-4.5,6-9,8.8-13.6l4.5-7.5c1.2-2.2,2.3-5.3,4.2-7.1a.2.2,0,0,0-.1-.4c2.1.9,4.4,3.5,6,5.3a32.4,32.4,0,0,1,5.2,8.8,56,56,0,0,0,3,7.1c1.5,2.6,3.4,5,4.3,7.8.1.3.4.3.5.1,3.4-4.6,5.6-9.7,8.2-14.8a33,33,0,0,1,5.7-8.6c2.3-2.5,4.9-4.7,7-7.4a17.7,17.7,0,0,1,1.6-2.3c1.2-.3,4.6,2.6,5.3,3.2a39.4,39.4,0,0,1,6.4,6.5,59.1,59.1,0,0,1,10.4,19.1l.2.2h.2a.2.2,0,0,0,.3-.1c3.1-5.9,6.3-11.8,9.9-17.4s7.7-12,13-16.1l.3-.6a1.7,1.7,0,0,1,1.4.2,16,16,0,0,1,2.3,1l4.4,2.2a46.4,46.4,0,0,1,8.7,6.6c2.7,2.7,5.4,5.5,8,8.3s3.9,5.4,6.3,6.6c.2,0,.4,0,.4-.2a150.9,150.9,0,0,1,8.3-19.4c1.6-3.1,3.3-6.2,5.2-9.2.8-1.4,1.6-2.7,2.5-4s1-1.2,2.3-.8c3.5,1,6.1,3.9,8.5,6.6a50.8,50.8,0,0,1,6.1,8.5c1.6,2.6,2.7,5.4,4.2,8s1.6,2.9,3.1,3.3a.5.5,0,0,0,.4-.2,109.1,109.1,0,0,1,9-18.9,83.7,83.7,0,0,1,5.3-7.9c.6-.9,5.7-8.3,6.9-7.7a.4.4,0,0,0,.4-.2c.3-1.3,4.7,1.3,5.3,1.7a23.1,23.1,0,0,1,3.9,3.1,57.4,57.4,0,0,1,6.5,7.4c1.8,2.5,3.5,5.1,5.2,7.7s1.7,3.5,3.4,3.4c.1,0,.3-.1.3-.2a151.8,151.8,0,0,1,5.2-19.8,53,53,0,0,1,3.7-9.3c1.2-1.9,3.4-5.2,6.1-5.2s2.9,1.3,4.1,1.9l4.3,2.2a26.5,26.5,0,0,1,7.9,5.8c3.9,4.1,6.8,9.1,10.7,13.2.1,0,.2.1.3,0l1-.3c.1-.1.2-.2.2-.3a86.6,86.6,0,0,1,8.2-33.9.3.3,0,0,0-.6-.3l-.2.3.6.2,4.2,2.1,3.7,2.1c2,1.2,4,2.4,5.9,3.8,4.4,3.3,7.9,8,11.5,12.1a.3.3,0,0,0,.5,0c1.6-1.4,1.8-4.4,2.6-6.4a98.2,98.2,0,0,1,4.6-10.5c3-6.2,6.1-12.3,8.3-18.9.1-.3-.5-.5-.6-.1-2.1,6.3-5.2,12.2-8.1,18.2-1.2,2.6-2.5,5.2-3.6,7.8s-1.1,2.8-1.6,4.2-.9,4.5-1.6,4.8-1.8-1.6-2.5-2.4l-3.2-3.6a46.2,46.2,0,0,0-6.4-6.1,85.4,85.4,0,0,0-8.2-5c-1.4-.8-4.2-3.4-5.9-2.7a.5.5,0,0,0-.3.3v.3c0,.3.4.4.6.1s.1-.2.2-.3l-.6-.3a91.9,91.9,0,0,0-5.8,16.2c-.6,2.7-1.2,5.5-1.6,8.3s-.1,6-.8,8.6-.7,1-1.7-.1-1.5-1.8-2.3-2.7-3-4.1-4.6-6.1a32.9,32.9,0,0,0-11.5-9.4l-3.9-2c-.8-.4-2.7-1.7-3.6-1.8a7.3,7.3,0,0,0-2.5.8c-3.3,1.6-5.1,5.8-6.3,8.9a137.3,137.3,0,0,0-5.4,17.6c-.4,1.4-.7,2.9-1,4.3a20.7,20.7,0,0,1-.4,2.2c-.7,1.2-.2.9-1.1.2a13.6,13.6,0,0,1-2.3-3.4l-2.9-4.2c-3.1-4.5-6.5-8.9-10.9-12.2-1.5-1.2-4.1-3.3-6.2-3.4-.6,0-1.4.6-1.7.4h-.3a110.5,110.5,0,0,0-12.3,16.5,102.8,102.8,0,0,0-4.9,9.3c-.7,1.4-1.3,2.8-1.9,4.2l-.9,2.3a26.7,26.7,0,0,1-.9,2.6c-1.1.7-4.9-7.5-5.3-8.3a54,54,0,0,0-5.2-8.2c-3.4-4.5-7.3-9-13-10.3-.1,0-.2,0-.3.2a135.4,135.4,0,0,0-10,17.4c-1.3,2.7-2.6,5.4-3.7,8.2l-1.8,4.5-.9,2.5c-.4,1.1-.1,1.5-1.4.2-4.8-4.8-9.1-10.1-14.1-14.7s-10-7-15.7-9.5c-.1,0-.3,0-.3.1s-.3.5,0,1.1a.3.3,0,0,0,.5-.2v-.3c0-.3-.3-.4-.4-.2a75.4,75.4,0,0,0-13.1,15.6c-1.9,2.8-3.6,5.8-5.3,8.7s-1.8,3.2-2.6,4.8-1.6,4.1-2.4,4.6-.3.5-.4-.4l-.3-.9c-.4-.9-.7-1.9-1.1-2.8s-1-2.4-1.6-3.6a53.5,53.5,0,0,0-5.7-9.1c-3.7-4.9-7.9-9.3-13.5-11.8-.1-.1-.3,0-.4.1-4.2,6-10.1,10.2-13.6,16.8-1.6,2.9-2.9,5.9-4.4,8.9a33.7,33.7,0,0,1-2.5,4.5,21.4,21.4,0,0,1-1.3,1.9,2.1,2.1,0,0,0-.4.6c-.3.4-.4.5-.3,0s-.3-1-.3-1.1a9.2,9.2,0,0,0-1.3-2.4l-2.4-3.8c-1.8-3.3-2.7-7-4.4-10.3a30.3,30.3,0,0,0-5.5-7.4c-1-1-3.5-3.8-5.1-3.7-.1,0-.2,0-.2.2v.2c0,.2,0,.3.1.3s-9.2,15.5-10.2,17.2-3.9,6-6,9-2.9,3.7-3.3,6.2c-.1.3.4.4.5.1.9-2.7-2.6-6.8-3.9-9-2.5-4.1-5.2-8-8-11.9s-4.3-6.7-7.1-9.4c-1-1-1.9-2-3.3-1s-2.5,3.9-3.6,5.4-2.9,3.9-4.5,5.8c-2.8,3.5-5.8,6.8-8.9,10s-6.3,5.9-9.6,8.7a30.5,30.5,0,0,1-3.4,3,15.8,15.8,0,0,1-1.1-3.3c-.4-1.1-.8-2.4-1.2-3.6-2.8-8.7-4.6-17.9-9.7-25.7h-.3c-1.8.4-2.4,3.8-3.2,5.3a103.6,103.6,0,0,1-5.2,9.2,108.5,108.5,0,0,1-13.7,17.3c-.2.2.1.6.3.4h0l.2-.3a53.9,53.9,0,0,0-7-16.6c-3-4.9-6.1-10.3-10.2-14.4a.3.3,0,0,0-.4,0c-.6.5-.5.4-.5,1.1a.3.3,0,0,0,.5.1l.3-.8c.1-.3-.3-.4-.5-.2a202.9,202.9,0,0,1-13.2,16.2l-6.6,7.3a22.2,22.2,0,0,1-5,4.7c-.1,0-.2.7-.2.7s-.2-1.8-.2-1.9a41.9,41.9,0,0,0-1.6-4.6c-1-3.2-2.1-6.2-3.3-9.3s-2.2-5.5-3.4-8.2-1.7-5.1-3.3-6.9a.3.3,0,0,0-.4,0,234,234,0,0,0-17.2,20.1c-1.3,1.7-2.6,3.4-3.8,5.2s-1.2,2.2-2,2.7,0,.5-.4-.2a4.1,4.1,0,0,1-.1-1.1,101.8,101.8,0,0,0-2.9-13.3,110.2,110.2,0,0,0-4.1-11.4,14,14,0,0,1-1.5-3.3s-.5-1.2-.2-1-.6.7-.9,1.2a51.3,51.3,0,0,1-3.8,5.7c-2.8,3.8-5.8,7.4-8.8,11.2l-4.5,5.6-2,2.6-1.1,1.4c-.9,1-.5.9-.9,0s-1.1-5.3-1.7-7.7-1.1-5.1-1.8-7.7c-1.3-5.4-2.7-10.9-4.1-16.4a.2.2,0,0,0-.3-.1c-1.5,1-2.4,3.2-3.4,4.6s-2.5,3.3-3.7,4.9l-8.5,10.8c-1.3,1.6-2.6,3.3-4,4.7a14.3,14.3,0,0,1-2.3,2c-1.3.9-1.1.8-1-.6a111.1,111.1,0,0,0-.3-12.9c-.3-3.8-.8-7.5-1.4-11.2-.2-1.1-.4-2.2-.7-3.3s0-2.1-1.1-1.3-2.6,3.7-3.7,5.2a150.3,150.3,0,0,1-17,18.7c-.1.2,0,.4.2.4h.8c.1,0,.2-.2.2-.3a128.2,128.2,0,0,1-3.8-16c-.4-2.9-.8-5.8-1-8.7s-.2-2.9-.3-4.4a12.3,12.3,0,0,0-.2-1.9l.6.3c-4.5,7.2-9.2,16-10.5,25,0,.1.2.2.2.1Z" style="fill:#6c2d0b"/><path d="M1139.9,1004.5a54.7,54.7,0,0,1,4.1-13.6c1.6-3.6,3.3-8.6,6.2-11.3.1,0,.1-.2,0-.3l-1.2-.6c-.1,0-.3,0-.3.2a142.4,142.4,0,0,0,1.5,15.9q.6,4.1,1.5,8.1c.3,1.3.6,2.6,1,3.9s1.1,3.3.6,3.3c1.2.2,4.7-4.6,5.5-5.4s3.5-4,5.2-6.1a148.9,148.9,0,0,0,9.5-13c.1-.1.1-.3-.1-.3l-.3-.2a.2.2,0,0,0-.3.3,135.6,135.6,0,0,1,2.5,31.2c0,.1.2.2.4.2,4.5-2.6,7.5-7.8,10.5-11.8s3.9-5.3,5.9-8l3-4.2c.7-1.1,1.9-2.3,2.2-3.5s0-.3-.2-.3h-.2c-.1,0-.2,0-.2.1v.2a.2.2,0,0,0,.3.3c1-.7.8.4,1,1.4s.7,2.8,1,4.2q1.2,4.5,2.1,9c1.4,5.8,2.6,11.7,3.8,17.5,0,.2.2.3.4.2,1.8-1.1,3.1-3.9,4.3-5.5l6.2-8.3c3.8-5,8.3-9.9,10.5-15.8a.3.3,0,0,0-.5-.2l-.5.6a.2.2,0,0,0,0,.3,111.2,111.2,0,0,1,8.7,30.9c0,.2.2.4.3.3s2.2-2.9,3.1-4.2,3.2-4.7,4.9-7c3.6-4.9,7.5-9.7,11.5-14.3.6-.6,1.8-2.6,2.6-2.8s.7.6,1,1.3a24.4,24.4,0,0,1,1,2.4c1.3,3.1,2.6,6.2,3.7,9.2,2.2,5.8,4.1,11.6,5.8,17.5.1.3.4.3.5,0s2-2.2,2.9-3.1,3.6-4.1,5.3-6.2q5.1-5.9,9.9-12l3.8-5.1a10.4,10.4,0,0,0,1.2-1.7v-.4c.1-.6.1-.6-.1-.1,1.6-.2,2.6,2,3.3,3,2.7,4,5.2,8,7.5,12.2a43.7,43.7,0,0,1,3.3,6.9,30.1,30.1,0,0,1,1.3,3.6c.3.8.4,3.1,1,3.7s4-2.9,4.9-3.9,2.7-3.5,4-5.3a105.1,105.1,0,0,0,7.5-12c1-1.9,2-3.9,2.9-5.9a9.3,9.3,0,0,1,1.2-2.7c.4-.6.1-.7.7-.5s.9,1.4,1.2,1.9c5.1,9.5,6.2,20.5,10.2,30.4.1.2.3.2.5.1a27.8,27.8,0,0,1,4.3-4.1c1.9-1.6,3.7-3.3,5.5-5.1a135.7,135.7,0,0,0,9.5-10.6,137.3,137.3,0,0,0,8.3-11.7c.4-.6.7-1.5,1.4-1.7s2.1,1.4,2.7,2.1,3.3,4.6,4.9,6.9c2.8,4.1,5.6,8.3,8.1,12.7a58,58,0,0,1,4.1,7.8c.9,2.5.3,1.2.7.2a16.5,16.5,0,0,1,2.2-3.6c2.8-4.4,5.5-8.8,8.1-13.3,1.4-2.4,2.8-4.8,4.1-7.2s2.2-5.1,3.8-6.9c.2-.1.1-.4,0-.4,2.1,1,4.2,3.6,5.7,5.3a31.6,31.6,0,0,1,4.8,8.6,58.6,58.6,0,0,0,2.8,6.9c1.4,2.8,3.3,5.2,4.2,8.2.1.2.4.3.5.1,3.2-4.6,5.3-9.6,7.7-14.7a40.1,40.1,0,0,1,5.1-8.4c2.3-2.6,4.9-4.9,7-7.7a13,13,0,0,1,1.5-2.3c1-.4,4.5,2.7,5,3.2a46.5,46.5,0,0,1,6.7,7.3,59.4,59.4,0,0,1,9.2,18.3h.7c2.9-5.9,5.9-11.8,9.3-17.5s7.3-11.9,12.4-16a1.9,1.9,0,0,0,.2-.7,1.7,1.7,0,0,1,1.4.3,20,20,0,0,1,2.1,1l4.2,2.2a38.2,38.2,0,0,1,8.5,7c2.5,2.5,4.9,5.2,7.3,7.8l3.3,3.9c.9,1,1.5,2.2,2.7,2.7s.4,0,.4-.1a146.9,146.9,0,0,1,7.8-19.3c1.4-3,2.9-5.9,4.6-8.8.8-1.4,1.6-2.8,2.5-4.2s.7-1.4,1.9-1.3c3.3.2,6.4,4.3,8.4,6.6a63.7,63.7,0,0,1,5.6,8c1.5,2.7,2.6,5.6,4.1,8.3s1.5,3.2,3.1,3.6.3,0,.4-.2a109.4,109.4,0,0,1,8.5-18.8c1.6-2.7,3.3-5.4,5-8,.8-1,5.5-8.3,6.5-7.7a.4.4,0,0,0,.5-.1c.3-1.3,4.4,1.3,5,1.7a34.7,34.7,0,0,1,3.7,3,54.1,54.1,0,0,1,6.1,7.5c1.7,2.5,3.3,5.1,5,7.7s1.5,3.5,3.2,3.4l.3-.2a160.1,160.1,0,0,1,5.1-20.4c1.3-4.1,3.4-13,8.6-13.8,1.2-.1,2.2.7,3.3,1.3l4.7,2.4a27.7,27.7,0,0,1,7.7,5.9c3.8,4.2,6.5,9.2,10.3,13.3.1.1.2.2.3.1l.9-.3c.1-.1.2-.2.2-.3a90.2,90.2,0,0,1,7.8-33.9c.1-.4-.3-.6-.6-.3v.3h.5c0,.1,3.6,1.9,4,2.2l3.5,2.1a45.5,45.5,0,0,1,6.2,4.3c4,3.3,7,7.7,10.3,11.6a.3.3,0,0,0,.4,0c1.6-1.5,1.7-4.3,2.4-6.3,1.3-3.7,2.8-7.2,4.4-10.7,2.9-6.1,5.9-12.3,7.9-18.8.1-.4-.5-.5-.6-.1-1.9,6.1-4.7,11.9-7.4,17.7-1.2,2.7-2.4,5.4-3.5,8.1a28.6,28.6,0,0,0-1.5,4.1c-.5,1.3-.7,3.5-1.5,4.6s0,.7-.6.5-1.2-1.5-1.6-2-2.2-2.7-3.4-4a34.6,34.6,0,0,0-6-6.1c-2.5-1.9-5.2-3.4-7.8-5s-4-3.4-5.6-2.7-.2.1-.2.3v.2c.1.3.4.5.6.2l.2-.3-.6-.3a91.5,91.5,0,0,0-7.7,32.2c0,1.1.3,2.3-1,1.5s-1.9-2.3-2.6-3.2-2.9-4.2-4.5-6.2a30.4,30.4,0,0,0-10.1-9.1l-3.6-1.9c-1-.5-3.1-2.2-4.3-2.3a8.1,8.1,0,0,0-2.5.8c-2.9,1.6-4.5,5.3-5.7,8.3a123,123,0,0,0-5,17c-.3.9-1.3,8.4-2,8.5s-4.6-6.6-5.1-7.4c-3-4.7-6.3-9.5-10.7-13-1.5-1.2-4-3.3-5.9-3.4s-1.4.6-1.7.4h-.3a106.5,106.5,0,0,0-11.4,16.1c-1.7,3-3.3,6.1-4.7,9.2-.7,1.5-1.3,3-1.9,4.5s-1,4-1.7,4.7-2.4-2.4-2.9-3.4-1.5-3-2.2-4.5a54.2,54.2,0,0,0-5.4-8.9c-3.1-4.2-6.5-8.4-11.8-9.6h-.3a162.7,162.7,0,0,0-9.5,17.4q-1.8,3.9-3.3,7.8l-1.8,4.7a15.5,15.5,0,0,1-.8,2.3l-.3,1c-.1.8-.3.8-.7.2s-2.2-2.6-3.1-3.6l-3.4-3.9c-2.3-2.5-4.5-5-6.9-7.4-4.4-4.4-9.6-7.2-15.2-9.8h-.4c-.2.6-.3.5.1,1.1s.5.1.5-.2v-.4c0-.2-.3-.3-.5-.1a77.6,77.6,0,0,0-12.2,15.1q-2.7,4.5-5.1,9c-.9,1.7-1.8,3.4-2.6,5.1s-1.4,4-2.3,4.5-.2.5-.3-.4l-.3-.9-.9-2.6c-.6-1.4-1.1-2.7-1.7-4a59.8,59.8,0,0,0-5.2-8.8c-3.5-4.9-7.5-9.4-12.9-11.9a.2.2,0,0,0-.4.1c-4,6-9.7,10.4-13,16.9-1.6,3.1-2.8,6.3-4.3,9.4q-1,2.1-2.1,3.9a8.6,8.6,0,0,1-1.5,2.2c-.7.6.1.7-.4,0a39.7,39.7,0,0,1-1.7-3.6,46.4,46.4,0,0,1-2.5-4.2c-1.5-3.1-2.2-6.4-3.7-9.4a29,29,0,0,0-4.9-7.1c-1-1.1-3.5-4.3-5.2-4.1-.1,0-.2,0-.2.1v.3c0,.1,0,.3.1.3s-8.7,15.5-9.7,17.1q-2.7,4.6-5.7,9.3c-1.3,2-2.7,3.6-3.1,6a.3.3,0,0,0,.5.1,3.2,3.2,0,0,0-.5-3,61.9,61.9,0,0,0-3.6-6.7c-2.2-3.9-4.7-7.7-7.2-11.4s-4.2-6.9-6.9-9.5-2.3-1.5-3.4.1a136.2,136.2,0,0,1-16.5,21.3,126.2,126.2,0,0,1-9.3,8.7l-1.6,1.3c-.5.5-.2.8-.6.5a16.6,16.6,0,0,1-.9-2.9,35.8,35.8,0,0,1-1.1-3.5c-2.7-8.8-4.3-18-9.3-25.9h-.3l-.8.3c-.8.5-1.8,4.1-2.3,5.2a89.2,89.2,0,0,1-4.9,9.1,103,103,0,0,1-12.9,17.2c-.1.2.1.6.3.4h.1a.4.4,0,0,0,.1-.3,57.4,57.4,0,0,0-6.5-16.5c-2.9-4.9-5.9-10.4-9.8-14.5h-.4c-.5.5-.5.4-.4,1.1s.4.3.4.1l.3-.8a.2.2,0,0,0-.4-.2c-3.9,5.5-8.1,10.8-12.4,16l-6.1,7.1c-1.6,1.9-3.5,3.3-5,5a3.1,3.1,0,0,0-.2.8c.2,0-.3-2.2-.4-2.3s-.9-3-1.4-4.6-2-5.9-3-8.9-2.4-6.2-3.7-9.3-1.4-4.2-2.7-5.8a.3.3,0,0,0-.4,0,218.2,218.2,0,0,0-16,19.7l-3.7,5.3-1.7,2.5c-.8,1.2-.7.8-.8-.2a75.8,75.8,0,0,0-2.7-13.4,91.8,91.8,0,0,0-4.2-12.5c-.3-.8-.7-1.5-1-2.3a5,5,0,0,0-.5-1.3c0,.1,1.1-1.7-.2.4s-2.4,4.1-3.8,6c-2.7,3.8-5.6,7.4-8.3,11.1l-4.3,5.7a25.6,25.6,0,0,1-2,2.6l-1.3,1.8c-.8,1-.4.9-.7,0s-1.2-5.5-1.7-7.9-1.1-5-1.7-7.5c-1.2-5.5-2.5-10.9-3.9-16.4a.2.2,0,0,0-.3-.1c-1.3,1-2.2,3.1-3.1,4.5l-3.7,5.1-7.4,10a65.4,65.4,0,0,1-4.1,5.1l-1.8,1.8c-2,1.7-1.2,1.3-1.6.5s.1-2.3.1-3.1v-3.2l-.3-6.8c-.3-3.8-.8-7.7-1.4-11.5-.1-1-.3-2.1-.5-3.1s-.1-2.2-.9-1.9-2.8,4-3.4,4.9a150.7,150.7,0,0,1-16.4,19.3c-.2.2-.1.4.1.4h.7c.2,0,.3-.1.3-.2a111.9,111.9,0,0,1-3.6-16c-.5-3-.8-6.1-1.1-9.1-.1-1.4-.1-2.8-.2-4.1a5,5,0,0,0-.2-1.8l.6.3c-.3.8-1.6,2.4-2.2,3.6s-2.4,4.8-3.5,7.2a52.9,52.9,0,0,0-4.2,14.2c0,.1.2.2.2,0Z" style="fill:#6c2d0b"/></svg>