<svg xmlns="http://www.w3.org/2000/svg" viewBox="0 0 720 85.7"><g id="Layer_2" data-name="Layer 2"><g id="Layer_1-2" data-name="Layer 1"><g id="mountains"><polygon points="340.5 44.4 392.2 82.4 402.2 76.2 340.5 44.4" style="fill:#cfe4d3"/><path d="M256.3,20.4l76.3,26.3L296.2,56.9s-35.4-21.7-34.7-21.7l18.3,1Z" style="fill:#cfe4d3"/><polygon points="83.8 83.4 219.7 17.9 226.2 24.7 221.9 24.9 227.7 31.7 237.8 57.9 205.2 40.7 206.9 47.9 204.7 47.9 221.9 85.7 83.8 83.4" style="fill:#7ab0b6"/><polygon points="219.7 17.9 242.9 25.9 227.7 31.7 221.9 24.9 226.9 24.8 219.7 17.9" style="fill:#cfe4d3"/><polygon points="221.9 85.7 257.7 85.7 237.8 57.9 205.2 40.7 206.9 47.9 204.7 47.9 221.9 85.7" style="fill:#cfe4d3"/><polygon points="0 69.2 53.8 46.9 111.9 75.5 192.4 84.8 191.1 85 0 85 0 69.2" style="fill:#4f769a"/><polygon points="53.8 46.9 110 82.2 197.8 85 53.8 46.9" style="fill:#7ab0b6"/><path d="M492.1,85.7,720,85V63.5l-51.5-25,14.3,14.4L662.6,40s-40.7-24-41.9-24.3,5.6,10.5,5.6,10.5L554.6,0,519.4,26.4l18.3-6.6L504.3,48.5,542.4,35,495,64.3Z" style="fill:#4f769a"/><polygon points="385 85.7 541.6 0 535.9 8.8 555.1 0 519.9 26.4 537.6 20 504.8 48.5 543 35 495.5 64.3 492.1 85.7 385 85.7" style="fill:#7db1ba"/><path d="M599.5,16.4c.8.3,21.2-.7,21.2-.7l5.6,10.5Z" style="fill:#7db1ba"/><polygon points="661.7 39.4 668.5 38.5 682.8 52.9 661.7 39.4" style="fill:#7db1ba"/><polygon points="554.6 0 541.1 0 535.4 8.8 554.6 0" style="fill:#4f769a"/><path d="M297.5,56.9c.8-.1,44.4-12.4,44.4-12.4l54.6,41.2H300.3Z" style="fill:#7ab0b6"/><polygon points="227.7 31.7 257.7 20.4 281.2 36.2 264.4 36.2 297.5 56.9 300.3 85.7 248.4 85.7 227.7 31.7" style="fill:#7ab0b6"/></g></g></g></svg>