<svg xmlns="http://www.w3.org/2000/svg" viewBox="0 0 1802.6 1780.2"><g id="Layer_2" data-name="Layer 2"><g id="Layer_1-2" data-name="Layer 1"><g id="moon"><path d="M700.7,1780.2h401.2c401.3-91.2,700.7-450.1,700.7-878.9C1802.6,403.5,1399.1,0,901.3,0S0,403.5,0,901.3C0,1330.1,299.5,1689,700.7,1780.2Z" style="fill:#e5edd4;opacity:0.1"/><circle cx="901.3" cy="901.3" r="712.6" style="fill:#e5edd4;opacity:0.1"/><circle cx="901.3" cy="901.3" r="542.5" style="fill:#e5edd4;opacity:0.1"/><circle cx="901.3" cy="901.3" r="428.1" style="fill:#fff"/><path d="M949.2,1203.9c-236.5,0-428.1-191.7-428.1-428.1a430.1,430.1,0,0,1,9-87.8,425.7,425.7,0,0,0-56.9,213.3c0,236.4,191.7,428.1,428.1,428.1,206.3,0,378.6-146,419.1-340.3C1246.5,1117.5,1107.9,1203.9,949.2,1203.9Z" style="fill:#efeff0"/><path d="M1093.4,872c-19-14.2-45.4-17.3-67.5-8.9-19.9,7.6-35.8,23.5-55.9,30.7-11.2,4-23.9,5.4-33.5,12a15,15,0,0,0-4.8,5.2h0a16.2,16.2,0,0,0-2,5.3c-6.9,39.2,21.7,80.5,60.1,91.9s84.1-5.4,110.2-37c8.8-10.7,15.9-23.1,18.4-36.6C1122.7,911.3,1112.3,886.2,1093.4,872Z" style="fill:#f6f6f6"/><path d="M979,627.1c10.2,10.2,25.9,14.4,40,11.2s23.8-11.1,36.6-13.7c7.1-1.5,14.9-1.2,21.3-4.4a11.3,11.3,0,0,0,3.4-2.7h0a9.2,9.2,0,0,0,1.6-3.1c7.6-23.1-6.1-50.6-28.4-60.9s-51.4-4-70,12.9c-6.2,5.7-11.6,12.6-14.3,20.6C964.6,600.7,968.7,616.8,979,627.1Z" style="fill:#f6f6f6"/><path d="M1163.5,780.3c-6.4,1-10.6,7.7-11,14.2-.8,11.3,8.4,22.3,19.7,23.6s22.6-7.4,24.5-18.5-6.3-23-17.3-25.4c-3.6-.8-8.3-.1-9.7,3.3" style="fill:#f6f6f6"/><path d="M578.5,727.1c-4.9.7-8.1,5.9-8.5,10.8-.5,8.6,6.5,17,15,18s17.3-5.6,18.7-14.1-4.7-17.6-13.1-19.4c-2.8-.6-6.4-.1-7.5,2.5" style="fill:#f6f6f6"/><path d="M1201.7,1046.5c-8.5,3.8-16.2,10.2-19.6,18.8s-1.5,19.6,5.9,25.2,19.9,3.4,23.5-5.2-.5-17.7,5.4-23.5c1.3-1.3,3-2.2,3.9-3.7,2.2-3.5-.6-8.4-4.4-9.8s-8.1-.5-12.1.5" style="fill:#f6f6f6"/><path d="M766.9,559.2c-18.6,8.4-35.6,22.4-43,41.4s-3.4,43.2,12.9,55.6,44,7.4,51.9-11.4c7-16.7-1.2-39.2,11.7-51.9,2.9-2.8,6.7-4.8,8.8-8.2,4.8-7.7-1.3-18.4-9.8-21.6s-17.9-1.1-26.6,1.1" style="fill:#f6f6f6"/><path d="M790.8,806.6c-5.5-12.9-13.7-26.6-27.3-30.1-8.4-2.1-17.3.1-25.7,2.5-45.4,13.3-84.9,18.6-131.3,27.6-33.9,6.6-31.4,61.5-24.2,89.6,3.1,12.1,7.5,24.1,15.3,33.8,10.4,13,26.3,20.9,42.7,23.5s33.3.2,49.2-4.6c43.8-13.3,81.3-45.9,100.6-87.4,4.3-9.1,7.7-18.9,7.5-29S794.3,814.9,790.8,806.6Z" style="fill:#f6f6f6"/><path d="M981.2,763.7c-.5-5.1-4.8-8.9-9.2-11.4a40.6,40.6,0,0,0-32.7-2.9l-8.4,2c-6.5-.7-13.4,0-18.6,3.8s-8.2,11.3-5.2,17,8.8,7.3,14.4,9c10.3,3.1,20.8,6.1,31.5,5.5s21.7-5.8,26.5-15.4A13.5,13.5,0,0,0,981.2,763.7Z" style="fill:#f6f6f6"/><path d="M991.9,1275c-6.7-1.4-10.6-8.5-12.4-15.1a59.1,59.1,0,0,1-2.1-18.7c.2-5.7,1.6-11.9,6.1-15.5s12-3.5,18.2-2.3a12.6,12.6,0,0,1,6,2.3c3.2,2.5,3.8,7,5.3,10.7s4.8,7.4,6.6,11.5a19.4,19.4,0,0,1-23,26.3" style="fill:#f6f6f6"/></g></g></g></svg>