<svg xmlns="http://www.w3.org/2000/svg" data-name="Layer 1" viewBox="0 0 720 504">
  <defs/>
  <path fill="#3a516e" d="M0 0v136.2s64 17.9 81-28.6 26.2-9.9 40.5-12.6c22.5-4.2 31.8-47.1 18.2-64.1s31.4 17.4 49.3-3.4C198 17 204.6-.1 204.6-.1z"/>
  <path fill="#3e3155" d="M0 369.6V504h22.6l9.7-92.4 7.9-95.3 7.5-90.8L75.3 62.1 126 0h-8L72.3 43 48.2 0h-8.6l18 57L0 369.6z"/>
  <path fill="#1f1f2a" d="M45.7 123L0 17.7v11.5l42.4 112.2 3.3-18.4z"/>
  <path fill="#1f1f2a" d="M21.1 66l6.5-66-6 .1-7.2 51.6L21 67.3M0 369.6v112.1l22.6-165.4 23.5-149.4L66.8 57 44.6 0h-5l18 57L0 369.6z"/>
  <path fill="#7c7496" d="M70.2 63.3l5.1-1.2L126 0l-2 .1-53.8 63.2zM33.4 298.3l-2.3 25.6 7.4 12.9 1.9-26.4-7-12.1zM29 339.3l8.2 13.4-.5 6.4L29 347v-7.7zM56.3 174.4l-.9 5.5-6.8-4.6.9-5.9 6.8 5zM54.4 186.2l-.7 3.4-6.4-4.6.7-4 6.4 5.2z"/>
  <path fill="#1f1f2a" d="M.2 489.4c0-.7-8.2-69.6 50.9-100.3l.6 1.3c-58.2 30.2-50.1 98.2-50.1 98.9z"/>
  <path fill="#3e3155" d="M232.6 358.8s24.7 11.5 30.2 9.3-7.7 2.6-17.9-12.9a37.3 37.3 0 00-14.1-13 34.6 34.6 0 00-21.6-3.6 28.5 28.5 0 01-7.8.1c-10.9-1-24.9-5.7-26.7-10s-5.8 11.9-5.8 11.9v-14.4s-29.8-6.4-47.8 3.6c-8.6 4.8-2.4 22.6-2.4 22.6l-10.8-20.7s-22.4 3.1-32.1 14.1-20.4 5.8-24.5 6.1-13.8 21.3 0 32.6 43.9-20.2 80.3-23.9 83.5-4.8 101-1.8z"/>
  <path fill="#7c7496" d="M212.5 347.4c3.5-4.2 12.7-5.8 20.5-3.6l.2-.6c-8-2.2-17.5-.5-21.1 3.8zM192.9 347.3c1.1-4.8 4.3-7.9 8.5-8.3v-.6c-5.2.6-8 4.9-8.9 8.7zM175.5 348.5h.6c-1.9-10.3 5.4-14.4 5.5-14.5l-.3-.5s-7.7 4.3-5.8 15zM228.3 357.3c.2-.3 4.7-8.4 15.8-2.8l.2-.5c-11.5-5.8-16.4 3-16.4 3.1zM97.1 353.5l.3-.4c-11.2-10-7.5-16.2-7.5-16.2l-.4-.3c-.2.2-4.1 6.5 7.6 16.9zM83.6 362.3l.2-.5q-8.4-4.1-9.6-9.3a7.4 7.4 0 011.2-5.8l-.5-.3a7.7 7.7 0 00-1.2 6.2c.8 3.6 4.1 6.9 9.9 9.7zM61.5 372.8l.4-.4c-6.6-4.7-8.3-9.9-8.6-13.4a13.7 13.7 0 01.9-6.6l-.5-.3c-.1.1-5.1 11.5 7.8 20.7z"/>
  <path fill="#1f1f2a" d="M237.3 360.6a130.6 130.6 0 01-25-13.4c-12.4-8.5-15.5 6.1-15.5 6.1v-6.7s-22.1 3.4-31.2 1.1-55.8-2.5-56.6 3.6 8.6 9.3 8.6 9.3l-19.7-8.7a15.3 15.3 0 01-10.2 8.7c-7.7 2.1-11.3 1-15.2 1.8s-11.6 13-16.8 15.2-6.4 6.9-7.8 13.2 27.9-10.5 53.4-18.5 34.7-11.2 69.3-13.2c32.3-1.9 56-3.8 66.7 1.5z"/>
  <path fill="#2e2442" d="M680.3 390.5s-24.7-37.8-36.2-42.5-19-5.9-42.4-4.8c0 0 13.4-4.2 34.6-4.4s22.6 2.3 26.6 4.4 13.1 11 19.1 12.1 12.4 7.1 7.1 15-10.3 12.2-9.1 18.7c.2.7 0 .7.3 1.5z"/>
  <path fill="#7c7496" d="M580.8 338.8s18.5 4.7 22.4 4.4c5.5-.4 41.6-5.6 48.8-3.8s-29-7.4-38.8-3.5c-13.4 5.2-27.7 5.8-32.4 2.9z"/>
  <path fill="#2e2442" d="M701.9 481.9h-1.2c1.8-58.3-21.7-93.3-22-93.6l1.3.8c.3.2 23.8 34 21.9 92.8z"/>
  <path fill="#1f1f2a" d="M119 35.3a12.7 12.7 0 007.6 2.9c4.6.1 8.4-1 8.8-1.9s-15-1.6-20.4-5.7c-1.2-.9 3.2 4.1 4 4.7z"/>
  <path fill="#3e3155" d="M104.5 27s9.2 15.1 17.8 14.2c2.2-.2-6.8-9.9-6.8-9.9a63.5 63.5 0 008.3 3.9 26 26 0 0011.6 1.1s-6.8-10.2-12.7-10.6c0 0 2.7-3.5 4.1-5.1s-9.1-1.6-11.1-1.1a16.1 16.1 0 00-11.2 7.5z"/>
  <path fill="#1f1f2a" d="M104.5 27s2-6.4 7.7-8.9 12.9 1.1 14.6 2.5-9.1-1.9-14 .3a29.6 29.6 0 00-8.3 6.1zM21.7 48.5c-.1.3 7.6 2.1 16.6-6.8.2-.3-3.8-.4-3.8-.4s5.4-4.1 6-10.3c.1-1-11.3 7.3-12.6 11.1a14.4 14.4 0 002.5-7.4c.1-1.2-6.4 5.1-8.7 13.8z"/>
  <path fill="#1f1f2a" d="M28.2 41.9s0-3.2 4.9-7.2a18.6 18.6 0 017.4-3.8 79.3 79.3 0 00-6.9 4.9c-2.3 1.8-5.5 5.2-5.4 6.1M38.3 41.7a30.2 30.2 0 01-7.2 4.9c-7.4 3.3-9.4 1.9-9.4 1.9a8.3 8.3 0 006 .7 16.2 16.2 0 008.2-4.9 23.7 23.7 0 002.4-2.6z"/>
  <path fill="#3e3155" d="M84.9 27c-.2.3-9.7-2.1-12.9-15.3-.1-.3 4.4 1.7 4.4 1.7s-2.9-6.8.8-12.9c.7-1.1 6.9 12.8 5.5 17.1 0 0-.3-3.5 2.7-8.3.7-1.1 3.2 8.3-.5 17.7z"/>
  <path fill="#1f1f2a" d="M82.6 17.3s2.2-3-.1-9.4A17.9 17.9 0 0077.3.4a91.5 91.5 0 013.9 8.3c1.1 2.9 2.1 7.8 1.4 8.6M72 11.7a24.1 24.1 0 004.2 8.5c5.4 7 8.7 6.8 8.7 6.8a11 11 0 01-7-2.6 15.8 15.8 0 01-5.3-8.9 14.2 14.2 0 01-.6-3.8z"/>
  <path fill="#3e3155" d="M99.3 33.3c-.2-.2-6 6.5-1.7 20 .1.3 2.3-3.6 2.3-3.6s1.4 7.4 7.1 11.2c1 .7-1.4-14.9-4.5-18.1a16.4 16.4 0 006.1 6.2c1 .8-1.9-9-9.3-15.7z"/>
  <path fill="#1f1f2a" d="M102.5 43.1s3.2 1.7 4.6 8.6a19.4 19.4 0 010 9.2c.1-.3-.7-6.1-1.3-9.3s-2.4-8.1-3.3-8.5M97.6 53.3a32.4 32.4 0 01-1.2-9.7c.4-9 2.9-10.3 2.9-10.3a9.3 9.3 0 00-3.7 5.6 17.9 17.9 0 00.6 10.6 26.2 26.2 0 001.4 3.8zM48.6 23.4c0 .2-5.4.4-10.2-6.7-.1-.2 2.6.2 2.6.2s-3.1-3.4-2.7-7.6c.1-.7 6.6 6.3 6.9 9a10.3 10.3 0 01-.7-5.2c.1-.8 3.7 4.2 4.1 10.3z"/>
  <path fill="#1f1f2a" d="M45.1 18.1s.4-2.1-2.4-5.4a12.3 12.3 0 00-4.4-3.4 54.4 54.4 0 014 4.1c1.3 1.5 3 4.2 2.8 4.7M38.4 16.7a17.7 17.7 0 004.2 4.2c4.4 3.2 6 2.5 6 2.5a5.7 5.7 0 01-4.1-.3 11.3 11.3 0 01-4.8-4.3 14.3 14.3 0 01-1.3-2.1zM18 79.8c0-.3-6.6-1.9-14.3 5.6-.2.2 3.2.4 3.2.4s-4.6 3.5-5.3 8.7c-.1.9 9.8-6.1 10.9-9.3a13.7 13.7 0 00-2.2 6.3c-.1 1 5.6-4.3 7.7-11.7z"/>
  <path fill="#1f1f2a" d="M12.3 85.3s-.1 2.8-4.3 6.1a16.6 16.6 0 01-6.3 3.2c.2-.1 3.9-2.6 5.9-4.1s4.8-4.4 4.7-5.2M3.7 85.4a24.9 24.9 0 016.2-4.1c6.3-2.8 8.1-1.5 8.1-1.5a7.5 7.5 0 00-5.2-.7 14.4 14.4 0 00-7.1 4.1 16.4 16.4 0 00-2 2.2zM10.1 147.4c0 .3 5.5-1 8.7-9.8a16.3 16.3 0 00-2.5 1s2.3-4.5.9-8.7c-.2-.7-5.2 8.4-4.9 11.3a10.7 10.7 0 00-.5-5.6c-.2-.8-2.7 5.4-1.7 11.8z"/>
  <path fill="#1f1f2a" d="M12.4 141s-.8-2.1 1.2-6.3a13.7 13.7 0 013.6-4.8 45.9 45.9 0 00-3 5.4c-1 1.9-2.1 5.2-1.8 5.7M18.8 137.6a19.1 19.1 0 01-3.2 5.6c-3.7 4.5-5.5 4.2-5.5 4.2a5.8 5.8 0 004.1-1.4 13 13 0 003.9-5.9 10.5 10.5 0 00.7-2.5zM20.9 181.2c.1-.2-4.7-3.1-13.1 1.1a14.5 14.5 0 002.5 1S5.6 185 3.7 189c-.4.7 9.5-2.5 11.3-4.9a12.3 12.3 0 00-3.5 4.5c-.4.8 5.7-2.1 9.4-7.4z"/>
  <path fill="#1f1f2a" d="M14.8 184.2s-.8 2.1-5.2 3.8a13.5 13.5 0 01-5.9 1 49.9 49.9 0 005.9-1.8c2-.7 5.1-2.4 5.2-3M7.8 182.3a21 21 0 016.2-1.8c5.9-.7 6.9.7 6.9.7a5.9 5.9 0 00-3.9-1.8 12.8 12.8 0 00-6.9 1.6 10 10 0 00-2.3 1.3z"/>
  <path fill="#3a516e" d="M720 107.3s1.5 8.2-23.4-3-41.9-54.7-50.6-71.1S593.2-.1 599.8 0H720z"/>
  <path fill="#1f1f2a" d="M16.3 26.2c.3.2 3.4-5.9-2.2-15.2a22.4 22.4 0 00-1.1 3.1S10.7 8.8 5.7 7c-.8-.3 3.7 10.9 6.6 12.7a12.8 12.8 0 00-5.6-3.6c-.9-.3 2.9 6.4 9.6 10.1z"/>
  <path fill="#1f1f2a" d="M12.2 19.5s-2.6-.7-4.9-5.6A15.4 15.4 0 015.7 7a66.9 66.9 0 002.6 6.7c1 2.3 3.2 5.7 3.9 5.8M14.1 11a22.6 22.6 0 012.6 7c1.3 6.8-.4 8.2-.4 8.2a6.9 6.9 0 001.9-4.8 14.1 14.1 0 00-2.4-7.8 14.7 14.7 0 00-1.7-2.6z"/>
  <path fill="#3e3155" d="M676.6 38.5c.1.3 8.4-2.8 11.2-16.6.1-.4-3.8 2-3.8 2s2.5-7.2-.6-13.3c-.6-1.1-6.1 13.7-4.9 18.1a18.1 18.1 0 00-2.3-8.5c-.6-1.1-2.8 8.8.4 18.3z"/>
  <path fill="#1f1f2a" d="M678.6 28.3s-1.9-3 .2-9.8a19.6 19.6 0 014.5-8 88.2 88.2 0 00-3.4 8.8c-1 3.1-1.9 8.3-1.3 9M687.8 21.9a31.7 31.7 0 01-3.6 9c-4.8 7.6-7.6 7.6-7.6 7.6a9.6 9.6 0 006-3.1 18.1 18.1 0 004.7-9.6 16.5 16.5 0 00.5-3.9zM662.4 36.7c.3-.2-4.2-7.8-18.3-8.2-.4 0 2.6 3.4 2.6 3.4s-7.5-1.3-13 2.9c-.9.8 14.6 3.6 18.7 1.7a17.1 17.1 0 00-7.9 3.7c-1.1.8 9.1 1.3 17.9-3.5z"/>
  <path fill="#1f1f2a" d="M652 36.4s-2.6 2.4-9.6 1.6a20.4 20.4 0 01-8.7-3.1 80 80 0 009.3 1.8c3.1.5 8.4.5 9-.3M644.1 28.5a31.3 31.3 0 019.5 2c8.4 3.4 8.8 6.2 8.8 6.2a9.6 9.6 0 00-4.1-5.5 18.9 18.9 0 00-10.2-2.9 21.5 21.5 0 00-4 .2z"/>
  <path fill="#3e3155" d="M720 77.7l-37.3-23L660.1 0h-4.8l16.9 65.6 47.8 32V77.7z"/>
  <path fill="#1f1f2a" d="M575.5 56.9a13.2 13.2 0 00-7.9-2.2c-4.6.3-8.3 1.8-8.6 2.7s15 .2 20.8 3.8c1.3.8-3.5-3.7-4.3-4.3z"/>
  <path fill="#3e3155" d="M590.7 63.8s-10.6-14.2-19.1-12.5c-2.1.4 7.7 9.2 7.7 9.2a71.9 71.9 0 00-8.6-3.1 27.1 27.1 0 00-11.7 0s7.7 9.5 13.6 9.4c0 0-2.3 3.7-3.6 5.4s9.2.8 11.1.2a16.9 16.9 0 0010.6-8.6z"/>
  <path fill="#1f1f2a" d="M590.7 63.8s-1.5 6.7-6.9 9.7-13 0-14.8-1.3 9.2 1.2 13.9-1.5 6.8-6 7.8-6.9z"/>
  <path fill="#3e3155" d="M620.5 61.6c.2.3 6.8-5.6 4.4-19.6 0-.3-2.8 3.3-2.8 3.3s-.3-7.6-5.5-12.1c-.9-.8-.6 15 2.1 18.6a17 17 0 00-5.2-7.1c-1-.8.5 9.2 7 16.9z"/>
  <path fill="#1f1f2a" d="M618.7 51.4s-2.9-2.1-3.4-9.2a21.4 21.4 0 011.2-9.1c-.1.4-.1 6.2.1 9.5s1.2 8.3 2.1 8.8M624.9 42a28.9 28.9 0 01-.1 9.8c-1.7 8.8-4.3 9.8-4.3 9.8a9.8 9.8 0 004.5-5 19 19 0 00.8-10.7 16.8 16.8 0 00-.9-3.9z"/>
  <path fill="#3e3155" d="M720 163.2L611.3 97.1 579.8 0h-6l29.3 103.8L720 192.5v-29.3z"/>
  <path fill="#3e3155" d="M634.7 111.3V82.8l-22.9-28.6h2.2l25.3 26.3 1.4 34.4-6-3.6zM587 46.1l-24-24v2.7l26.7 31-2.7-9.7z"/>
  <path fill="#1f1f2a" d="M720 163.2v9.3L611.8 101l-.5-3.9L720 163.2z"/>
  <path fill="#7c7496" d="M697.3 175.2l4.7 3.6v-15.7l-4-3.8-.7 15.9zM691.7 171l2.7 1.8v-14.5l-2.1-2.5-.6 15.2zM661.7 148.3v-12l-2.4-1.5-.7 11.1 3.1 2.4zM652.1 141l1.6 1.3.2-9.5-.9-1-.9 9.2z"/>
  <path fill="#3e3155" d="M573 37.1c.3-.2-3.9-8-18.1-8.9-.3 0 2.5 3.5 2.5 3.5s-7.4-1.5-13 2.6c-1 .7 14.4 4 18.6 2.2a17.7 17.7 0 00-8.1 3.5c-1 .7 9.1 1.5 18.1-2.9z"/>
  <path fill="#1f1f2a" d="M562.6 36.5s-2.7 2.3-9.7 1.2a21.2 21.2 0 01-8.5-3.3c.3.2 6 1.5 9.2 2.1s8.4.7 9 0M554.9 28.2a34.8 34.8 0 019.5 2.4c8.2 3.6 8.6 6.5 8.6 6.5a9.6 9.6 0 00-3.9-5.6 19.2 19.2 0 00-10.2-3.3zM212.5 55.8a12.8 12.8 0 018-1.4c4.6.8 8.1 2.6 8.3 3.6s-15-1.4-21.1 1.6c-1.3.7 3.9-3.4 4.8-3.8z"/>
  <path fill="#3e3155" d="M196.7 61.1s11.9-13 20.2-10.5c2.1.7-8.6 8.4-8.6 8.4a71.2 71.2 0 018.9-2.2 26.2 26.2 0 0111.6 1.2s-8.6 8.6-14.5 7.9l3 5.8c.4.6-9.2-.1-11-1a16.3 16.3 0 01-9.6-9.6z"/>
  <path fill="#1f1f2a" d="M196.7 61.1s.7 6.8 5.8 10.3 12.9 1.4 14.8.3-9.2.2-13.6-3a26.9 26.9 0 01-7-7.6z"/>
  <path fill="#3e3155" d="M157.9 71.1c-.2.3-6.6-5.8-3.7-19.7.1-.3 2.7 3.4 2.7 3.4s.6-7.6 5.9-11.9c1-.8.1 15-2.7 18.5a17.2 17.2 0 015.4-6.9c1-.8-.9 9.2-7.6 16.6z"/>
  <path fill="#1f1f2a" d="M160.1 61s3-2 3.8-9a20 20 0 00-1-9.2c.2.4-.1 6.2-.4 9.5s-1.5 8.3-2.4 8.7M154.2 51.4a33.2 33.2 0 00-.2 9.7c1.3 9 3.9 10 3.9 10a9.1 9.1 0 01-4.3-5.2 18.4 18.4 0 01-.4-10.6 16.1 16.1 0 011-3.9z"/>
  <path fill="#3e3155" d="M59.3 146.7l114.9-54.6L215.7-.2l6.2.2-40.3 99.6-125.3 76.3 3-29.2z"/>
  <path fill="#3e3155" d="M149.4 103.8l1.7-16.8 24-35.1.7-2.8-29 37.9-6.4 21.1 9-4.3zM202.8 43.6l26.4-21.4-.3 2.6-29.8 28.1 3.7-9.3z"/>
  <path fill="#1f1f2a" d="M61.1 145.9L58.3 156l114.9-60.1 1-3.8-113.1 53.8z"/>
  <path fill="#7c7496" d="M80.7 161.1l-5.1 3 1.6-15.6 4.4-3.4-.9 16zM86.6 157.4l-2.8 1.5 1.5-14.4 2.3-2.3-1 15.2zM118.8 137.8l1.3-11.8 2.4-1.3-.4 11.1-3.3 2zM129.1 131.6l-1.8 1.1.8-9.5 1-.9v9.3z"/>
  <path fill="#3e3155" d="M219 34.9c-.3-.2 5.7-6.7 19.6-4.1.3.1-3.3 2.8-3.3 2.8s7.6.4 12 5.7c.8.9-15 .3-18.6-2.4a16.2 16.2 0 017 5.3c.8 1-9.2-.7-16.7-7.3z"/>
  <path fill="#1f1f2a" d="M229.1 36.9s2 2.9 9.1 3.6a20.2 20.2 0 009.1-1.1 90.8 90.8 0 01-9.4-.3c-3.2-.2-8.3-1.3-8.8-2.2M238.6 30.8a35.4 35.4 0 00-9.7-.1c-8.9 1.6-9.9 4.2-9.9 4.2a9 9 0 015.1-4.4 18.6 18.6 0 0110.6-.7 29.1 29.1 0 013.9 1zM720 97.6l-47.8-32L655.3 0h1.5l19.6 61.1L720 88.5v9.1z"/>
  <path fill="#1f1f2a" d="M664.4 35.1l-17.6-18.4V20s19.9 23.9 20 24.2-2.4-9.1-2.4-9.1zM35.2 178.5l-17.8-13.7L.5 109.3 0 119.8l12.3 54.8L32.5 193l2.7-14.5z"/>
  <path fill="#3e3155" d="M27.1 457.1s83.7 6.9 124.8 20.6 156.6 2.3 182.1 0l55-4.9s18.8 1.6 41 3.8 71.2-4.7 81-8.3 54.2 0 54.2 0 50.3 1.8 72.5 4.5 82.3-6.1 82.3-6.1v33.1l-712.5 3zM68.1 103.2l9.8-8.6v7.2l-12.1 16.5 2.3-15.1z"/>
  <path fill="#2e2442" d="M663 431.7s17.8 4.8 16.9-7.6-4.3-30.9-10-28c-7.9 4-33.4 10.1-27.7 16.4s13.5 4.9 20.8 19.2z"/>
  <path fill="#7c7496" d="M667.5 394.7s-23 1.6-33-10.8-14.7 6.4-22.3 17.5-12.3 15.5-13.1 21.6-4.8 20.1-2.3 35.4a211.1 211.1 0 012.8 24.2s10.2-30.7 17.5-37a41 41 0 0010.3-13.3l.9-6.4 3 .2s6.8-11.9 11.4-12.5 17.2-15.2 26.3-16-1.5-2.9-1.5-2.9z"/>
  <path fill="#9f9bb2" d="M643.4 390.9s-15.3 7.5-23.6 19.4-17.9 29.4-20 51.5c-1 10.5.3-5.3 4.5-18.5a118.6 118.6 0 0113.8-29.1c12.7-18.7 27.6-22.6 27.6-22.6z"/>
  <path fill="#2e2442" d="M674.2 432.1s13.9 22.6 17 47l2.7.2s-5.6-25.7-17.5-47.9z"/>
  <path fill="#9f9bb2" d="M627.7 401.9a7.8 7.8 0 00-3.5-4.8c-2.4-1.3-5.8-.8-9.9 1.5l-.4-.7c4.4-2.5 8-3 10.7-1.6s3.8 5.3 3.9 5.5zM629.2 426h-.8a9.6 9.6 0 00-1.5-7.5c-3-3.7-8.7-3.8-8.8-3.8v-.8c.3 0 6.2 0 9.4 4.1 1.6 1.9 2.2 4.7 1.7 8zM597.7 433.3l-.8-.3c1-3.8 2.8-6.3 5.4-7.7a10.6 10.6 0 018.5-.2l-.3.8s-4.2-1.7-7.9.2-3.9 3.7-4.9 7.2zM611.8 453.8l-.7-.3c1.6-4.9 1.6-8.5.1-10.8a6.5 6.5 0 00-5.7-2.5v-.9c.2 0 4.2-.3 6.4 2.9s1.6 6.4-.1 11.6zM641.4 414.2h-.8c.1-6.2-1.1-10.4-3.6-12.5a7 7 0 00-6.1-1.1l-.2-.9a7.5 7.5 0 016.7 1.3c2.8 2.2 4.1 6.7 4 13.2z"/>
  <path fill="#2e2442" d="M71.8 328.9s-24.5 2.9-22.2-7.6 8.5-26 16-23.1c10.3 3.9 44.1 10.7 35.9 15.7s-18.6 3.3-29.7 15z"/>
  <path fill="#7c7496" d="M69 297.1s30.9 2.9 45.5-7 19.2 6.4 28.6 16.3 15.1 14 15.7 19.3 4.7 17.5 0 30.3-5.8 20.4-5.8 20.4-11.1-26.8-20.4-32.7-12.9-12-12.9-12l-.6-5.5H115s-8-10.6-14.2-11.4-21.9-14.1-34.2-15.3 2.4-2.4 2.4-2.4z"/>
  <path fill="#9f9bb2" d="M101.7 295.4s20.1 7.4 30.3 18.1 21.6 26.3 22.5 45.2c.4 9 0-4.6-4.4-16a89.2 89.2 0 00-16.2-25.8 75.7 75.7 0 00-35.3-21z"/>
  <path fill="#2e2442" d="M59 322.8C40.7 340 22.3 356.9 9.7 378.9 4.9 387.5 3 391 0 400.4v10.7c3.1-12.7 5.9-19.2 12.3-30.7 12.1-21.9 30.8-38.6 48.8-55.5 1.4-1.3-.7-3.4-2.1-2.1z"/>
  <path fill="#1f1f2a" d="M0 464.2V504h720v-37.3s-34.5-.9-56.2 11.3c0 0-109.8 13.9-127.6 9.4s-46-4.4-65.1 0-178.8-2.8-215.8 0-109.8 6.1-144.2 0S0 464.2 0 464.2z"/>
  <path fill="#1f1f2a" d="M234.7 500.8s-13-56-56-78c0 0 41.5 8.5 64 78M720 357.7c-20-51.2-61.6-59.9-61.6-59.9 43 22 61.6 83 61.6 83zM2 418.5c20-51.3 62.2-61.3 62.2-61.3-43 22-61.7 83.1-61.7 83.1zM720 451.1c-20-51.3-61.6-60-61.6-60 43 22 61.6 83 61.6 83zM720 408.7c-20-51.2-61.6-60-61.6-60 43 22 61.6 83.1 61.6 83.1zM2.3 456c20.1-51.3 62.2-61.3 62.2-61.3C21.5 416.7 2 498.6 2 498.6zM0 338.5c13.4-34.4 41.7-41.1 41.7-41.1C12.8 312.1 0 353.8 0 353.8zM247.3 454.2a58.7 58.7 0 0111 41.6h6s4.5-23-17-41.6zM116.3 452.7a58.7 58.7 0 01-11.8 41.3l5.2 3.1s15.6-17.5 6.6-44.4z"/>
  <path fill="#1f1f2a" d="M24.3 426.8a58.7 58.7 0 01-11.8 41.3l5.2 3.1s15.6-17.5 6.6-44.4zM607.6 452.7a58.7 58.7 0 01-11.8 41.3l5.2 3.1s15.6-17.5 6.6-44.4zM660.8 448.7a52.1 52.1 0 01-10.5 36.6l4.6 2.7s13.9-15.5 5.9-39.3zM705.7 424.9a59 59 0 015.3 42.6l5.9.8s7.6-22.2-11.2-43.4zM60 451.5s-10.3 8.4-14.6 31.4l-2.7-2.8s3.2-22.4 17.3-28.6z"/>
  <path fill="#1f1f2a" d="M21.2 441.3s-10.3 8.4-14.6 31.5l-2.8-2.9s3.3-22.4 17.4-28.6zM79.2 501.8h8.6s-.3-59.2 62.5-78.8c14.6-4.6-25.8 4.1-43.1 20.4-23.7 22.4-28.5 51.6-28 58.4zM712 484.4h-8.6s.3-59.1-62.5-78.8c-14.6-4.6 25.8 4.1 43 20.4 23.8 22.5 28.6 51.6 28.1 58.4z"/>
  <path fill="#fff" d="M223.1 388.2c0 .3-.9.6-2 .6H59.7c-1.1 0-2-.3-2-.6 0-.4.9-.7 2-.7h161.4c1.1 0 2 .3 2 .7z" opacity=".3"/>
  <path fill="#1f1f2a" d="M447.2 502.8h-4.9s.1-33.8-35.7-45.1c-8.4-2.6 14.7 2.4 24.6 11.7 13.5 12.8 16.3 29.5 16 33.4zM467.8 495.6h-3.3s.1-23.2-24.6-30.9c-5.7-1.8 10.1 1.6 16.9 8 9.3 8.8 11.2 20.3 11 22.9zM193.3 499.8h-3.4s.1-23.3-24.5-31c-5.7-1.8 10.1 1.6 16.9 8 9.3 8.9 11.2 20.3 11 23zM196.3 493.2h5s.2-34.2 37.5-52c0 0-37 7.3-42.5 52zM630.8 487.8h5s.2-34.3 37.5-52c0 0-37 7.2-42.5 52zM474.5 501h8.3s36-48 73.4-52c0 0-44-.3-81.7 52zM57.5 434.7l-.7-1.2c-17.1 9-32.2 40.9-43 70.3h1.5c17.5-47.6 32.4-63.9 42.2-69.1z"/>
  <path fill="#3e3155" d="M53.7 436.3s-17.2-1.8-14.4-10 24.5-24.9 34.9-23.8-5.1 28.8-20.5 33.8z"/>
  <path fill="#1f1f2a" d="M185 438.1s-29-21.6-64.2-16.5a541.8 541.8 0 00-62.6 12.8s-1.1-7 5.8-15.6 4.2-12 4.2-12 2.9 7.6 2.4 9.4.5-11.3 5.4-16.1 8.3-9.4 16.6-11.1 38.9 12.4 44.7 16 2.6 3.6 2.6 3.6l-10.4 6.5 16.9-5s21.4 7.2 38.6 28z"/>
  <path fill="#7c7496" d="M59 427.9c-.2-.1-11.3-3-11.3-12.3h.7c0 8.8 10.6 11.6 10.7 11.6zM66.5 415.4c-.2 0-4.6-1.6-6.2-4.7a5.1 5.1 0 01-.2-4l.6.2a4.7 4.7 0 00.2 3.5c1.5 2.9 5.8 4.3 5.9 4.4z"/>
  <path fill="#1f1f2a" d="M707.8 388.4l-1.1-.4c-5.7 15.3 3.5 44.7 13.2 68.8v-3.1c-15.4-38.9-15.2-57-12.1-65.3z"/>
  <path fill="#3e3155" d="M706.4 391.3s-11.3 8.1-13.9 1.7 1.4-28 8.2-32.8 12.3 19.9 5.7 31.1z"/>
  <path fill="#1f1f2a" d="M700.3 366.5a1.4 1.4 0 00-.9-.5zM705.9 370.3l-.7-.7c.5.7.9 1.1.7.7z"/>
  <path fill="#1f1f2a" d="M704.7 342.4c-4 5.4-3.6 10-4 15.4s3.1 9.6 4.7 11.8a2.3 2.3 0 01.7.7c.2.4-.1 0-.7-.7a28.7 28.7 0 00-4.9-3.1c1.1.8 2.7 3 3 8.9.4 8.8 4.8 12.3 4.8 12.3s4.3-6.7 11.7-16.8v-36.6c-6.9 2.6-13.4 5.6-15.3 8.1z"/>
  <path fill="#7c7496" d="M705.1 383.5c-.1 0-8.4 4.2-13.3-1.4l.5-.3c4.6 5.2 12.4 1.2 12.5 1.2zM703 372c-.2.1-3.7 1.5-6.3.5a4.1 4.1 0 01-2.2-2.3l.5-.2a3.2 3.2 0 001.9 1.9c2.4 1 5.8-.4 5.9-.4z"/>
</svg>
